<mxfile host="app.diagrams.net" modified="2021-06-27T09:31:45.842Z" agent="5.0 (Windows)" etag="pJpnrvJxy5BghOEgge7I" version="14.7.8" type="github">
  <diagram id="C5RBs43oDa-KdzZeNtuy" name="Page-1">
    <mxGraphModel dx="791" dy="345" grid="1" gridSize="10" guides="1" tooltips="1" connect="1" arrows="1" fold="1" page="1" pageScale="1" pageWidth="827" pageHeight="1169" math="0" shadow="0">
      <root>
        <mxCell id="WIyWlLk6GJQsqaUBKTNV-0" />
        <mxCell id="WIyWlLk6GJQsqaUBKTNV-1" parent="WIyWlLk6GJQsqaUBKTNV-0" />
        <mxCell id="tYF_dMg2inxap3Txix1V-1" value="" style="html=1;points=[];perimeter=orthogonalPerimeter;" vertex="1" parent="WIyWlLk6GJQsqaUBKTNV-1">
          <mxGeometry x="300" y="360" width="10" height="100" as="geometry" />
        </mxCell>
        <mxCell id="tYF_dMg2inxap3Txix1V-5" value="" style="html=1;points=[];perimeter=orthogonalPerimeter;" vertex="1" parent="WIyWlLk6GJQsqaUBKTNV-1">
          <mxGeometry x="300" y="250" width="10" height="80" as="geometry" />
        </mxCell>
        <mxCell id="tYF_dMg2inxap3Txix1V-6" value="buchAusleihen()" style="html=1;verticalAlign=bottom;startArrow=oval;endArrow=block;startSize=8;entryX=-0.052;entryY=0.134;entryDx=0;entryDy=0;entryPerimeter=0;" edge="1" target="tYF_dMg2inxap3Txix1V-5" parent="WIyWlLk6GJQsqaUBKTNV-1">
          <mxGeometry x="0.1111" relative="1" as="geometry">
            <mxPoint x="200" y="260" as="sourcePoint" />
            <mxPoint x="290" y="260" as="targetPoint" />
            <Array as="points">
              <mxPoint x="230" y="260" />
            </Array>
            <mxPoint as="offset" />
          </mxGeometry>
        </mxCell>
        <mxCell id="tYF_dMg2inxap3Txix1V-7" value="" style="shape=umlLifeline;participant=umlActor;perimeter=lifelinePerimeter;whiteSpace=wrap;html=1;container=1;collapsible=0;recursiveResize=0;verticalAlign=top;spacingTop=36;outlineConnect=0;" vertex="1" parent="WIyWlLk6GJQsqaUBKTNV-1">
          <mxGeometry x="190" y="190" width="20" height="300" as="geometry" />
        </mxCell>
        <mxCell id="tYF_dMg2inxap3Txix1V-10" value="" style="html=1;points=[];perimeter=orthogonalPerimeter;" vertex="1" parent="WIyWlLk6GJQsqaUBKTNV-1">
          <mxGeometry x="430.25" y="260" width="10" height="70" as="geometry" />
        </mxCell>
        <mxCell id="tYF_dMg2inxap3Txix1V-11" value="Gebühren ok" style="edgeStyle=orthogonalEdgeStyle;html=1;align=left;spacingLeft=2;endArrow=block;rounded=0;" edge="1" parent="WIyWlLk6GJQsqaUBKTNV-1">
          <mxGeometry relative="1" as="geometry">
            <mxPoint x="440.5" y="450" as="sourcePoint" />
            <Array as="points">
              <mxPoint x="482.25" y="450" />
              <mxPoint x="482.25" y="470" />
            </Array>
            <mxPoint x="440.25" y="470" as="targetPoint" />
          </mxGeometry>
        </mxCell>
        <mxCell id="tYF_dMg2inxap3Txix1V-13" value="" style="html=1;points=[];perimeter=orthogonalPerimeter;rotation=90;" vertex="1" parent="WIyWlLk6GJQsqaUBKTNV-1">
          <mxGeometry x="296.25" y="161.25" width="17.5" height="80" as="geometry" />
        </mxCell>
        <mxCell id="tYF_dMg2inxap3Txix1V-16" value="" style="html=1;verticalAlign=bottom;endArrow=open;dashed=1;endSize=8;exitX=1.048;exitY=0.539;exitDx=0;exitDy=0;exitPerimeter=0;" edge="1" parent="WIyWlLk6GJQsqaUBKTNV-1" source="tYF_dMg2inxap3Txix1V-13" target="tYF_dMg2inxap3Txix1V-5">
          <mxGeometry x="0.1015" y="18" relative="1" as="geometry">
            <mxPoint x="380" y="370" as="sourcePoint" />
            <mxPoint x="300" y="370" as="targetPoint" />
            <mxPoint as="offset" />
          </mxGeometry>
        </mxCell>
        <mxCell id="tYF_dMg2inxap3Txix1V-18" value="Bibliothek" style="text;whiteSpace=wrap;html=1;" vertex="1" parent="WIyWlLk6GJQsqaUBKTNV-1">
          <mxGeometry x="280" y="190" width="60" height="10" as="geometry" />
        </mxCell>
        <mxCell id="tYF_dMg2inxap3Txix1V-20" value="" style="html=1;points=[];perimeter=orthogonalPerimeter;rotation=90;" vertex="1" parent="WIyWlLk6GJQsqaUBKTNV-1">
          <mxGeometry x="430.25" y="170" width="17.5" height="80" as="geometry" />
        </mxCell>
        <mxCell id="tYF_dMg2inxap3Txix1V-21" value="Student" style="text;whiteSpace=wrap;html=1;" vertex="1" parent="WIyWlLk6GJQsqaUBKTNV-1">
          <mxGeometry x="414" y="198.75" width="60" height="10" as="geometry" />
        </mxCell>
        <mxCell id="tYF_dMg2inxap3Txix1V-22" value="" style="html=1;verticalAlign=bottom;endArrow=open;dashed=1;endSize=8;exitX=1.048;exitY=0.539;exitDx=0;exitDy=0;exitPerimeter=0;" edge="1" parent="WIyWlLk6GJQsqaUBKTNV-1">
          <mxGeometry x="0.1015" y="18" relative="1" as="geometry">
            <mxPoint x="435.0100000000001" y="220.84000000000003" as="sourcePoint" />
            <mxPoint x="435.0100000000001" y="260" as="targetPoint" />
            <mxPoint as="offset" />
          </mxGeometry>
        </mxCell>
        <mxCell id="tYF_dMg2inxap3Txix1V-23" value="buchAusleihen()" style="html=1;verticalAlign=bottom;startArrow=oval;endArrow=block;startSize=8;" edge="1" parent="WIyWlLk6GJQsqaUBKTNV-1" target="tYF_dMg2inxap3Txix1V-10">
          <mxGeometry x="0.0053" y="-1" relative="1" as="geometry">
            <mxPoint x="313.7499999999999" y="280" as="sourcePoint" />
            <mxPoint x="433.75" y="281" as="targetPoint" />
            <Array as="points">
              <mxPoint x="343.75" y="280" />
            </Array>
            <mxPoint as="offset" />
          </mxGeometry>
        </mxCell>
        <mxCell id="tYF_dMg2inxap3Txix1V-24" value="gültigkeit prüfen" style="edgeStyle=orthogonalEdgeStyle;html=1;align=left;spacingLeft=2;endArrow=block;rounded=0;" edge="1" parent="WIyWlLk6GJQsqaUBKTNV-1">
          <mxGeometry relative="1" as="geometry">
            <mxPoint x="440.5" y="270" as="sourcePoint" />
            <Array as="points">
              <mxPoint x="482.25" y="270" />
              <mxPoint x="482.25" y="290" />
            </Array>
            <mxPoint x="440.25" y="290" as="targetPoint" />
          </mxGeometry>
        </mxCell>
        <mxCell id="tYF_dMg2inxap3Txix1V-25" value="Gebühren berechnen()" style="html=1;verticalAlign=bottom;endArrow=open;dashed=1;endSize=8;entryX=1.138;entryY=0.598;entryDx=0;entryDy=0;entryPerimeter=0;" edge="1" parent="WIyWlLk6GJQsqaUBKTNV-1" target="tYF_dMg2inxap3Txix1V-1">
          <mxGeometry x="-0.1667" relative="1" as="geometry">
            <mxPoint x="420" y="420" as="sourcePoint" />
            <mxPoint x="310" y="380" as="targetPoint" />
            <Array as="points" />
            <mxPoint as="offset" />
          </mxGeometry>
        </mxCell>
        <mxCell id="tYF_dMg2inxap3Txix1V-26" value="gebühr berechnen()" style="html=1;verticalAlign=bottom;endArrow=block;exitX=1.043;exitY=0.921;exitDx=0;exitDy=0;exitPerimeter=0;" edge="1" parent="WIyWlLk6GJQsqaUBKTNV-1" source="tYF_dMg2inxap3Txix1V-1">
          <mxGeometry x="-0.0042" width="80" relative="1" as="geometry">
            <mxPoint x="310.25" y="410" as="sourcePoint" />
            <mxPoint x="430" y="452" as="targetPoint" />
            <mxPoint as="offset" />
          </mxGeometry>
        </mxCell>
        <mxCell id="tYF_dMg2inxap3Txix1V-27" value="Buch verfügbar()" style="html=1;verticalAlign=bottom;endArrow=open;dashed=1;endSize=8;exitX=0.113;exitY=0.731;exitDx=0;exitDy=0;exitPerimeter=0;entryX=1.043;entryY=0.771;entryDx=0;entryDy=0;entryPerimeter=0;" edge="1" parent="WIyWlLk6GJQsqaUBKTNV-1" source="tYF_dMg2inxap3Txix1V-10" target="tYF_dMg2inxap3Txix1V-5">
          <mxGeometry relative="1" as="geometry">
            <mxPoint x="430" y="290" as="sourcePoint" />
            <mxPoint x="310" y="290" as="targetPoint" />
          </mxGeometry>
        </mxCell>
        <mxCell id="tYF_dMg2inxap3Txix1V-28" value="BuchDetailsAusgeben" style="html=1;verticalAlign=bottom;endArrow=open;dashed=1;endSize=8;exitX=-0.052;exitY=0.783;exitDx=0;exitDy=0;exitPerimeter=0;" edge="1" parent="WIyWlLk6GJQsqaUBKTNV-1" source="tYF_dMg2inxap3Txix1V-5" target="tYF_dMg2inxap3Txix1V-7">
          <mxGeometry x="-0.005" relative="1" as="geometry">
            <mxPoint x="300" y="290" as="sourcePoint" />
            <mxPoint x="200" y="290" as="targetPoint" />
            <mxPoint as="offset" />
          </mxGeometry>
        </mxCell>
        <mxCell id="tYF_dMg2inxap3Txix1V-29" value="reservierung hinzufügen" style="html=1;verticalAlign=bottom;endArrow=block;" edge="1" parent="WIyWlLk6GJQsqaUBKTNV-1" source="tYF_dMg2inxap3Txix1V-7">
          <mxGeometry x="-0.184" width="80" relative="1" as="geometry">
            <mxPoint x="200" y="380" as="sourcePoint" />
            <mxPoint x="298" y="378" as="targetPoint" />
            <mxPoint as="offset" />
          </mxGeometry>
        </mxCell>
        <mxCell id="tYF_dMg2inxap3Txix1V-30" value="" style="html=1;verticalAlign=bottom;endArrow=open;dashed=1;endSize=8;entryX=0.614;entryY=-0.004;entryDx=0;entryDy=0;entryPerimeter=0;exitX=0.614;exitY=1.003;exitDx=0;exitDy=0;exitPerimeter=0;" edge="1" parent="WIyWlLk6GJQsqaUBKTNV-1" source="tYF_dMg2inxap3Txix1V-5" target="tYF_dMg2inxap3Txix1V-1">
          <mxGeometry x="0.3388" y="24" relative="1" as="geometry">
            <mxPoint x="450" y="330" as="sourcePoint" />
            <mxPoint x="370" y="330" as="targetPoint" />
            <mxPoint as="offset" />
          </mxGeometry>
        </mxCell>
        <mxCell id="tYF_dMg2inxap3Txix1V-31" value="reservierung hinzufügen" style="html=1;verticalAlign=bottom;endArrow=block;" edge="1" parent="WIyWlLk6GJQsqaUBKTNV-1">
          <mxGeometry width="80" relative="1" as="geometry">
            <mxPoint x="310" y="380" as="sourcePoint" />
            <mxPoint x="430" y="380" as="targetPoint" />
          </mxGeometry>
        </mxCell>
        <mxCell id="tYF_dMg2inxap3Txix1V-32" value="" style="html=1;points=[];perimeter=orthogonalPerimeter;" vertex="1" parent="WIyWlLk6GJQsqaUBKTNV-1">
          <mxGeometry x="430.25" y="370" width="10" height="110" as="geometry" />
        </mxCell>
        <mxCell id="tYF_dMg2inxap3Txix1V-34" value="" style="html=1;verticalAlign=bottom;endArrow=open;dashed=1;endSize=8;" edge="1" parent="WIyWlLk6GJQsqaUBKTNV-1">
          <mxGeometry x="0.5" y="30" relative="1" as="geometry">
            <mxPoint x="440" y="330" as="sourcePoint" />
            <mxPoint x="440" y="370" as="targetPoint" />
            <mxPoint as="offset" />
          </mxGeometry>
        </mxCell>
        <mxCell id="tYF_dMg2inxap3Txix1V-35" value="Status setzen" style="html=1;verticalAlign=bottom;endArrow=open;dashed=1;endSize=8;" edge="1" parent="WIyWlLk6GJQsqaUBKTNV-1" target="tYF_dMg2inxap3Txix1V-7">
          <mxGeometry x="0.0436" y="20" relative="1" as="geometry">
            <mxPoint x="430" y="470" as="sourcePoint" />
            <mxPoint x="350" y="470" as="targetPoint" />
            <mxPoint as="offset" />
          </mxGeometry>
        </mxCell>
      </root>
    </mxGraphModel>
  </diagram>
</mxfile>
